Coordinates
version=1
nRows=34
nColumns=38
inDegrees=no

Units are S.I. units (second, meters, Newtons, ...)
If the header above contains a line with 'inDegrees', this indicates whether rotational values are in degrees (yes) or radians (no).

endheader
time	pelvis_tilt	pelvis_list	pelvis_rotation	pelvis_tx	pelvis_ty	pelvis_tz	hip_flexion_r	hip_adduction_r	hip_rotation_r	knee_angle_r	ankle_angle_r	subtalar_angle_r	mtp_angle_r	hip_flexion_l	hip_adduction_l	hip_rotation_l	knee_angle_l	ankle_angle_l	subtalar_angle_l	mtp_angle_l	lumbar_extension	lumbar_bending	lumbar_rotation	arm_flex_r	arm_add_r	arm_rot_r	elbow_flex_r	pro_sup_r	wrist_flex_r	wrist_dev_r	arm_flex_l	arm_add_l	arm_rot_l	elbow_flex_l	pro_sup_l	wrist_flex_l	wrist_dev_l
1.11	0.190438	1.50776	-1.53971	0.976501	0.472593	0.910737	0.340005	-0.0837366	-0.390443	0.251167	-0.00576629	0	0	-0.340085	-0.0608961	-0.17754	0.392662	0.288196	0	0	-0.183701	0.0031793	-0.318479	-0.23905	-0.186009	-0.000149385	0.786272	0.513796	0	0	0.0524127	-0.410651	0.16583	0.692309	1.36933	0	0
1.12	0.107245	1.50832	-1.4539	0.975913	0.459815	0.911247	0.339041	-0.0785556	-0.388848	0.27529	-0.0032478	0	0	-0.323013	-0.0795499	-0.183527	0.446395	0.267873	0	0	-0.180949	0.0115501	-0.317716	-0.241194	-0.187802	-0.00150454	0.785384	0.512838	0	0	0.043741	-0.403857	0.160429	0.689882	1.37608	0	0
1.13	0.00355965	1.5091	-1.349	0.975195	0.447067	0.911815	0.339958	-0.0721579	-0.386128	0.302768	0.00475488	0	0	-0.300835	-0.0996127	-0.187135	0.505577	0.24014	0	0	-0.177431	0.0210369	-0.315201	-0.243205	-0.19004	-0.00269668	0.784938	0.511241	0	0	0.0345363	-0.39667	0.15525	0.688315	1.38176	0	0
1.14	-0.123458	1.51045	-1.22276	0.974296	0.434446	0.912332	0.341724	-0.0638829	-0.382239	0.327877	0.0138175	0	0	-0.273199	-0.120229	-0.187415	0.568626	0.203507	0	0	-0.172423	0.0312367	-0.310179	-0.245023	-0.19291	-0.0029135	0.784344	0.508093	0	0	0.0255199	-0.388927	0.150748	0.686712	1.386	0	0
1.15	-0.275984	1.51227	-1.07296	0.97321	0.422022	0.912728	0.343487	-0.0537876	-0.377843	0.347513	0.0218532	0	0	-0.240435	-0.140714	-0.184384	0.634032	0.158135	0	0	-0.165476	0.0415967	-0.303193	-0.246379	-0.196695	-0.000971738	0.783538	0.502933	0	0	0.0161442	-0.38115	0.147286	0.685645	1.38859	0	0
1.16	-0.453646	1.51415	-0.899305	0.971972	0.409731	0.912935	0.344808	-0.0423718	-0.374559	0.361069	0.0286661	0	0	-0.203188	-0.160295	-0.17795	0.700375	0.106723	0	0	-0.156499	0.0515914	-0.29491	-0.24788	-0.201269	0.00333091	0.78312	0.494722	0	0	0.0064761	-0.373566	0.145082	0.68498	1.38947	0	0
1.17	-0.603141	1.51602	-0.75195	0.969852	0.397164	0.912997	0.344774	-0.0275057	-0.366219	0.370458	0.0320831	0	0	-0.165083	-0.187412	-0.173205	0.7639	0.0574213	0	0	-0.147071	0.0570316	-0.28721	-0.251376	-0.204562	0.00864301	0.784126	0.484475	0	0	-0.00361754	-0.368002	0.144205	0.685402	1.38787	0	0
1.18	-0.798069	1.51593	-0.563418	0.968353	0.38507	0.912886	0.34323	-0.013909	-0.362356	0.374316	0.0404266	0	0	-0.123773	-0.203367	-0.161989	0.82866	-0.00167834	0	0	-0.136677	0.065475	-0.277242	-0.254225	-0.210752	0.0177995	0.787588	0.463877	0	0	-0.0146748	-0.362306	0.146553	0.687304	1.38003	0	0
1.19	-0.921143	1.51341	-0.447189	0.966807	0.373076	0.913106	0.335749	-0.000566692	-0.357836	0.373968	0.0498048	0	0	-0.0870534	-0.21663	-0.149723	0.889114	-0.0570202	0	0	-0.130587	0.0725142	-0.266377	-0.256774	-0.215995	0.0246285	0.791114	0.447782	0	0	-0.0247404	-0.358043	0.152065	0.690009	1.36991	0	0
1.2	-0.996265	1.50948	-0.378797	0.965237	0.361278	0.913578	0.324771	0.0131083	-0.351772	0.371647	0.0596155	0	0	-0.0528536	-0.22871	-0.137852	0.946488	-0.101473	0	0	-0.127602	0.0791456	-0.255196	-0.258682	-0.220291	0.0291517	0.79386	0.439157	0	0	-0.0335989	-0.354468	0.158671	0.692476	1.36293	0	0
1.21	-1.01363	1.50484	-0.368121	0.963744	0.349678	0.914501	0.3103	0.025903	-0.344028	0.369427	0.0692292	0	0	-0.0235648	-0.238663	-0.128233	0.997649	-0.125278	0	0	-0.128585	0.0848088	-0.243521	-0.260026	-0.223834	0.0316587	0.796103	0.433833	0	0	-0.0404137	-0.350793	0.165273	0.69324	1.35845	0	0
1.22	-0.990805	1.50102	-0.39799	0.962336	0.338191	0.915866	0.294045	0.0362342	-0.334482	0.368956	0.0791075	0	0	0.00119267	-0.245007	-0.120614	1.04169	-0.130872	0	0	-0.132127	0.0881483	-0.231061	-0.261105	-0.226742	0.0333766	0.79718	0.427812	0	0	-0.0455831	-0.34746	0.17403	0.692356	1.35314	0	0
1.23	-0.933925	1.49805	-0.46133	0.960988	0.326864	0.917648	0.275323	0.0438031	-0.325243	0.368364	0.0884714	0	0	0.0230947	-0.24827	-0.113264	1.08144	-0.123661	0	0	-0.138193	0.0888787	-0.219293	-0.261367	-0.228173	0.0335396	0.796423	0.421933	0	0	-0.049913	-0.345137	0.184385	0.690605	1.34779	0	0
1.24	-0.868041	1.49616	-0.533355	0.95962	0.315795	0.919616	0.255728	0.0492009	-0.316632	0.366258	0.0967366	0	0	0.0458293	-0.249016	-0.104947	1.12082	-0.104798	0	0	-0.14492	0.0873315	-0.208252	-0.26064	-0.228215	0.0326612	0.793399	0.416519	0	0	-0.0538583	-0.343836	0.195791	0.688533	1.343	0	0
1.25	-0.798265	1.49559	-0.609688	0.958223	0.304826	0.921699	0.235184	0.0527051	-0.30876	0.361113	0.103973	0	0	0.0691213	-0.246997	-0.096873	1.15758	-0.077342	0	0	-0.15103	0.0834453	-0.197539	-0.259569	-0.227309	0.0312296	0.788372	0.411174	0	0	-0.0580245	-0.342965	0.207492	0.68673	1.33787	0	0
1.26	-0.731688	1.4962	-0.683429	0.956843	0.294101	0.923795	0.214885	0.0547397	-0.301348	0.353448	0.109955	0	0	0.0930256	-0.242888	-0.0903236	1.18844	-0.050675	0	0	-0.156189	0.078047	-0.187036	-0.257924	-0.225915	0.0296798	0.781835	0.406548	0	0	-0.0622806	-0.342011	0.21879	0.684712	1.33408	0	0
1.27	-0.672206	1.49781	-0.750285	0.955489	0.283604	0.925823	0.19566	0.055664	-0.295055	0.344425	0.115214	0	0	0.117936	-0.237619	-0.0853444	1.21255	-0.0298111	0	0	-0.159955	0.0717821	-0.177276	-0.256125	-0.224251	0.0283176	0.774701	0.402972	0	0	-0.0671269	-0.340986	0.229021	0.682541	1.33282	0	0
1.28	-0.621221	1.50035	-0.808271	0.954211	0.273225	0.927721	0.177541	0.0559005	-0.290347	0.334237	0.120109	0	0	0.144136	-0.231629	-0.0812711	1.23091	-0.0145747	0	0	-0.161907	0.0651503	-0.168576	-0.255078	-0.222177	0.0262795	0.768145	0.400598	0	0	-0.0728025	-0.340057	0.238409	0.681045	1.33337	0	0
1.29	-0.573857	1.50333	-0.862072	0.953027	0.262922	0.929509	0.159983	0.0558571	-0.287738	0.323322	0.124358	0	0	0.17069	-0.225388	-0.0778867	1.2438	-0.00425566	0	0	-0.162659	0.0584732	-0.161077	-0.254646	-0.220295	0.0251135	0.762161	0.398704	0	0	-0.0794486	-0.339189	0.246229	0.680917	1.3352	0	0
1.3	-0.527012	1.50681	-0.914974	0.951934	0.252741	0.931162	0.142843	0.0555475	-0.283486	0.311328	0.128463	0	0	0.197397	-0.218886	-0.0756471	1.25149	0.00320211	0	0	-0.162496	0.0517136	-0.154585	-0.254766	-0.218784	0.0252282	0.757088	0.396621	0	0	-0.0868112	-0.338291	0.25253	0.68196	1.33775	0	0
1.31	-0.476875	1.51053	-0.971105	0.950936	0.242661	0.932713	0.125826	0.0550558	-0.278388	0.298323	0.131876	0	0	0.223575	-0.212327	-0.0753568	1.25427	0.0116618	0	0	-0.161793	0.0449799	-0.148685	-0.25565	-0.217727	0.0263945	0.75361	0.394067	0	0	-0.0946383	-0.33716	0.257436	0.683381	1.34094	0	0
1.32	-0.410986	1.5142	-1.04356	0.950008	0.232602	0.93422	0.108504	0.0538416	-0.273008	0.284853	0.13471	0	0	0.247924	-0.205583	-0.078077	1.25213	0.0234638	0	0	-0.161095	0.0378405	-0.142668	-0.257144	-0.217197	0.0284232	0.751415	0.391566	0	0	-0.102797	-0.335695	0.261392	0.684537	1.3449	0	0
1.33	-0.332352	1.51746	-1.1285	0.949203	0.222694	0.935645	0.0910306	0.0520813	-0.268176	0.271095	0.137023	0	0	0.271135	-0.198719	-0.0825963	1.24585	0.0390151	0	0	-0.160876	0.0308706	-0.13708	-0.258877	-0.217099	0.0307511	0.750576	0.389338	0	0	-0.110788	-0.334114	0.264615	0.685878	1.34914	0	0
1.34	-0.261406	1.51797	-1.20654	0.948425	0.212911	0.937314	0.0718524	0.051323	-0.257778	0.259476	0.129038	0	0	0.290628	-0.194062	-0.0894007	1.2347	0.0559525	0	0	-0.163192	0.0259923	-0.13068	-0.260094	-0.217365	0.0320481	0.75062	0.387489	0	0	-0.11789	-0.331701	0.266891	0.686557	1.35307	0	0
1.35	-0.150665	1.51819	-1.32594	0.947465	0.202849	0.938777	0.0508953	0.0492204	-0.250385	0.243781	0.129317	0	0	0.306542	-0.188413	-0.100837	1.21822	0.0727605	0	0	-0.165323	0.0185084	-0.123212	-0.262184	-0.217079	0.0322638	0.751506	0.386392	0	0	-0.126201	-0.329981	0.268219	0.688289	1.35641	0	0
1.36	-0.00396231	1.51835	-1.48151	0.94646	0.192829	0.939834	0.0297978	0.0454339	-0.245144	0.225069	0.140869	0	0	0.321413	-0.181063	-0.11437	1.19761	0.0875926	0	0	-0.166777	0.00868395	-0.116324	-0.26451	-0.216434	0.0317084	0.754051	0.385901	0	0	-0.135457	-0.329478	0.269534	0.691669	1.35927	0	0
1.37	0.101054	1.51588	-1.59527	0.945606	0.183125	0.941029	0.00870587	0.0425098	-0.236162	0.210819	0.142356	0	0	0.333616	-0.175838	-0.12803	1.17251	0.0996589	0	0	-0.170697	0.00155436	-0.1098	-0.265298	-0.216574	0.0306877	0.757464	0.386252	0	0	-0.143369	-0.328081	0.270537	0.694108	1.36068	0	0
1.38	0.193871	1.5125	-1.69643	0.944881	0.173379	0.942087	-0.0129012	0.0393535	-0.227106	0.196635	0.143459	0	0	0.343599	-0.170525	-0.142033	1.14286	0.11007	0	0	-0.175036	-0.00535021	-0.103671	-0.266122	-0.216554	0.0279671	0.761727	0.387775	0	0	-0.150895	-0.32655	0.271604	0.696272	1.36038	0	0
1.39	0.27452	1.5088	-1.7852	0.944268	0.163574	0.942927	-0.0341812	0.0357955	-0.21818	0.183079	0.144854	0	0	0.351907	-0.165199	-0.156823	1.10884	0.120682	0	0	-0.179072	-0.0120394	-0.0981209	-0.266502	-0.216502	0.0244265	0.766003	0.390117	0	0	-0.158503	-0.32488	0.272431	0.69818	1.35867	0	0
1.4	0.340203	1.50523	-1.85895	0.943736	0.153814	0.943506	-0.0546581	0.0322328	-0.209657	0.169925	0.146918	0	0	0.359139	-0.160224	-0.17225	1.07106	0.130935	0	0	-0.182622	-0.0182041	-0.0931897	-0.265936	-0.217032	0.0220002	0.77027	0.392749	0	0	-0.166087	-0.322977	0.272783	0.699814	1.35565	0	0
1.41	0.389311	1.50216	-1.91564	0.943312	0.144128	0.943802	-0.0742843	0.0292057	-0.201593	0.157369	0.148926	0	0	0.365711	-0.155803	-0.187921	1.02983	0.140977	0	0	-0.185588	-0.023378	-0.0892047	-0.264742	-0.217892	0.0198644	0.775195	0.395522	0	0	-0.173467	-0.320872	0.273014	0.701017	1.35154	0	0
1.42	0.425192	1.49996	-1.95844	0.943008	0.13451	0.943794	-0.0924438	0.0267334	-0.194692	0.146348	0.151507	0	0	0.371982	-0.152131	-0.203889	0.985222	0.150043	0	0	-0.187879	-0.0273615	-0.0859575	-0.263222	-0.218695	0.0168988	0.780788	0.398584	0	0	-0.180289	-0.318742	0.274414	0.70134	1.34811	0	0
1.43	0.452539	1.49815	-1.99232	0.942818	0.124898	0.943547	-0.110156	0.0245397	-0.188464	0.135687	0.154983	0	0	0.376956	-0.148747	-0.220655	0.936759	0.157045	0	0	-0.189886	-0.0305678	-0.0831329	-0.261364	-0.219645	0.0138716	0.786818	0.401699	0	0	-0.186459	-0.31646	0.276115	0.700751	1.34512	0	0
1.44	0.475894	1.49621	-2.02204	0.94274	0.115245	0.943113	-0.128277	0.0222107	-0.182401	0.124537	0.159004	0	0	0.379942	-0.145032	-0.239022	0.884112	0.161739	0	0	-0.191961	-0.0335656	-0.0804955	-0.259226	-0.220694	0.0110666	0.792927	0.404909	0	0	-0.191948	-0.314082	0.278058	0.6994	1.34241	0	0
